<svg xmlns="http://www.w3.org/2000/svg" viewBox="0 0 264.56 57.48"><defs><style>.cls-1{fill:#fff;}.cls-2{fill:#e75661;}</style></defs><title>자산 1</title><g id="레이어_2" data-name="레이어 2"><g id="레이어_1-2" data-name="레이어 1"><rect class="cls-1" y="2.08" width="13.55" height="13.55" rx="2.39"/><rect class="cls-1" x="20.93" y="2.08" width="13.55" height="13.55" rx="2.39"/><rect class="cls-1" x="20.93" y="23" width="13.55" height="13.55" rx="2.39"/><rect class="cls-1" x="41.85" y="43.93" width="13.55" height="13.55" rx="2.35"/><rect class="cls-1" y="23" width="13.55" height="13.55" rx="2.39"/><rect class="cls-1" x="41.85" y="23" width="13.55" height="13.55" rx="2.37"/><rect class="cls-1" y="43.93" width="13.55" height="13.55" rx="2.35"/><rect class="cls-1" x="20.93" y="43.93" width="13.55" height="13.55" rx="2.37"/><rect class="cls-2" x="42.85" y="3.07" width="11.56" height="11.56" rx="2.38" transform="translate(20.5 -31.79) rotate(45)"/><path class="cls-1" d="M103.93,26.92a10.46,10.46,0,0,1,7.95-2V13.45c-4.08.09-7.27,1-9.66,4l-1,1.4V14.16H91.19V49h10.07V33.28A7.94,7.94,0,0,1,103.93,26.92Z"/><path class="cls-1" d="M134.2,13.17c-10.75,0-18.56,7.74-18.56,18.41,0,10.85,8,18.42,19.34,18.42,6.54,0,11.6-2.33,15-6.93l-8-4.63a9.64,9.64,0,0,1-6.85,2.62c-4.56,0-7.51-1.73-8.75-5.14l-.14-.36h25.3a20.51,20.51,0,0,0,.38-4C151.91,21.08,144.29,13.17,134.2,13.17Zm-8.15,15,.1-.34c1-3.74,3.86-5.79,8-5.79a7.54,7.54,0,0,1,7.76,5.79l.1.34Z"/><path class="cls-1" d="M195,49V0H184.9V17.94l-.48-.55c-2.43-2.8-5.91-4.22-10.34-4.22-9.33,0-16.64,8.09-16.64,18.41S164.75,50,174.08,50c4.43,0,7.91-1.42,10.34-4.22l.48-.56V49Zm-18.77-8.52c-5.21,0-8.7-3.58-8.7-8.91s3.49-8.91,8.7-8.91,8.69,3.58,8.69,8.91S181.41,40.49,176.21,40.49Z"/><path class="cls-1" d="M220,13.17a18.25,18.25,0,0,0-18.49,18.41,18.49,18.49,0,0,0,37,0A18.25,18.25,0,0,0,220,13.17Zm0,27a8.25,8.25,0,0,1-8.42-8.63,8.42,8.42,0,1,1,16.83,0A8.24,8.24,0,0,1,220,40.21Z"/><path class="cls-1" d="M250.36,46.58c2.63,2.36,7.14,3.15,14.2,2.45V39.94c-3.21.18-5.3.06-6.43-1a3,3,0,0,1-.86-2.33V23.81h7.29V14.16h-7.29V4.34l-10.07,3v6.8h-5.66v9.65h5.66v12.8C247.2,41.46,248.2,44.63,250.36,46.58Z"/></g></g></svg>